<?xml version="1.0" encoding="UTF-8"?>
<!DOCTYPE svg PUBLIC "-//W3C//DTD SVG 1.1//EN" "http://www.w3.org/Graphics/SVG/1.1/DTD/svg11.dtd">
<svg xmlns="http://www.w3.org/2000/svg" version="1.1" width="859px" height="290px" style="shape-rendering:geometricPrecision; text-rendering:geometricPrecision; image-rendering:optimizeQuality; fill-rule:evenodd; clip-rule:evenodd" xmlns:xlink="http://www.w3.org/1999/xlink">
<g><path style="opacity:1" fill="#4691c6" d="M 297.5,29.5 C 297.123,31.258 296.456,32.9246 295.5,34.5C 296.277,36.5385 297.443,37.2052 299,36.5C 299.969,40.0264 299.135,43.0264 296.5,45.5C 289.92,41.7 282.92,39.3667 275.5,38.5C 233.025,19.2919 191.692,21.4586 151.5,45C 144.649,50.2612 137.982,55.7612 131.5,61.5C 130.479,60.9984 130.312,60.3317 131,59.5C 169.322,18.6229 215.822,4.78955 270.5,18C 280.083,20.8004 289.083,24.6338 297.5,29.5 Z"/></g>
<g><path style="opacity:1" fill="#4692c6" d="M 297.5,29.5 C 310.312,36.2386 321.645,44.9053 331.5,55.5C 330.504,55.5858 329.671,55.2524 329,54.5C 328.964,56.9412 328.131,58.9412 326.5,60.5C 324.846,58.8572 323.513,57.0239 322.5,55C 322.667,54.1667 322.833,53.3333 323,52.5C 324.183,53.731 325.349,53.731 326.5,52.5C 326.167,51.5 325.5,50.8333 324.5,50.5C 321.932,51.1901 319.432,51.5234 317,51.5C 316.626,53.898 316.626,56.2313 317,58.5C 312.833,57 310,54.1667 308.5,50C 306.782,49.654 305.115,49.154 303.5,48.5C 302.985,51.1566 303.485,53.8233 305,56.5C 308.177,60.207 311.343,63.8737 314.5,67.5C 315.559,69.5336 316.559,71.5336 317.5,73.5C 311.397,66.8952 305.063,60.3952 298.5,54C 291.113,48.3148 283.446,43.1481 275.5,38.5C 282.92,39.3667 289.92,41.7 296.5,45.5C 299.135,43.0264 299.969,40.0264 299,36.5C 297.443,37.2052 296.277,36.5385 295.5,34.5C 296.456,32.9246 297.123,31.258 297.5,29.5 Z"/></g>
<g><path style="opacity:1" fill="#4593ca" d="M 331.5,55.5 C 344.376,68.5687 353.709,83.9021 359.5,101.5C 360.008,104.176 360.175,106.843 360,109.5C 359,107.833 358,106.167 357,104.5C 356.316,105.784 356.483,106.951 357.5,108C 354.936,109.529 353.77,111.695 354,114.5C 354.833,113.5 355.667,112.5 356.5,111.5C 358.216,118.125 360.549,124.458 363.5,130.5C 364.167,130.833 364.833,131.167 365.5,131.5C 366.833,142.167 366.833,152.833 365.5,163.5C 365.167,162.833 364.833,162.167 364.5,161.5C 363.833,161.833 363.167,162.167 362.5,162.5C 361.675,158.878 361.175,155.211 361,151.5C 359.171,159.31 358.004,167.31 357.5,175.5C 355.578,173.997 354.412,171.997 354,169.5C 353.29,170.973 352.124,171.64 350.5,171.5C 350.36,173.124 351.027,174.29 352.5,175C 351.747,176.487 350.914,176.654 350,175.5C 349.88,166.964 348.88,158.631 347,150.5C 346.754,153.89 346.254,157.223 345.5,160.5C 346.762,162.575 346.595,164.575 345,166.5C 344.667,156.833 344.333,147.167 344,137.5C 343.809,135.292 343.309,133.292 342.5,131.5C 338.569,110.301 330.236,90.9681 317.5,73.5C 316.559,71.5336 315.559,69.5336 314.5,67.5C 311.343,63.8737 308.177,60.207 305,56.5C 303.485,53.8233 302.985,51.1566 303.5,48.5C 305.115,49.154 306.782,49.654 308.5,50C 310,54.1667 312.833,57 317,58.5C 316.626,56.2313 316.626,53.898 317,51.5C 319.432,51.5234 321.932,51.1901 324.5,50.5C 325.5,50.8333 326.167,51.5 326.5,52.5C 325.349,53.731 324.183,53.731 323,52.5C 322.833,53.3333 322.667,54.1667 322.5,55C 323.513,57.0239 324.846,58.8572 326.5,60.5C 328.131,58.9412 328.964,56.9412 329,54.5C 329.671,55.2524 330.504,55.5858 331.5,55.5 Z"/></g>
<g><path style="opacity:0.996" fill="#233e86" d="M 203.5,54.5 C 205.448,55.1312 207.281,56.1312 209,57.5C 210.508,55.1616 212.675,54.1616 215.5,54.5C 215.703,56.3904 215.037,57.8904 213.5,59C 213.833,59.3333 214.167,59.6667 214.5,60C 209.981,60.1753 205.647,60.6753 201.5,61.5C 187.219,65.3072 174.219,71.8072 162.5,81C 167.739,86.9099 173.572,92.0766 180,96.5C 189.301,83.2016 201.135,72.7016 215.5,65C 216.252,64.3292 216.586,63.4959 216.5,62.5C 219.027,59.7381 222.027,59.0714 225.5,60.5C 227.086,59.8519 228.753,59.3519 230.5,59C 229.944,58.6174 229.611,58.1174 229.5,57.5C 230.8,56.8921 232.133,56.2255 233.5,55.5C 235.5,56 237.5,56.5 239.5,57C 237.333,58.8333 235.167,60.6667 233,62.5C 232.383,63.4491 232.549,64.2825 233.5,65C 230.097,65.7381 226.93,65.2381 224,63.5C 223.167,63.8333 222.333,64.1667 221.5,64.5C 224.571,68.0039 225.237,72.0039 223.5,76.5C 224.138,84.6291 224.805,92.6291 225.5,100.5C 225.5,101.167 225.5,101.833 225.5,102.5C 224.542,102.953 223.708,103.619 223,104.5C 222.857,92.6297 222.024,80.963 220.5,69.5C 220.44,68.9569 220.107,68.6236 219.5,68.5C 205.218,75.6121 193.551,85.7788 184.5,99C 185.056,99.3826 185.389,99.8826 185.5,100.5C 183.168,102.333 180.501,103.666 177.5,104.5C 177.5,103.5 177.5,102.5 177.5,101.5C 170.929,96.4361 164.763,90.7694 159,84.5C 145.806,97.8878 137.639,113.888 134.5,132.5C 133.25,132.577 132.417,133.244 132,134.5C 129.863,132.679 129.03,130.346 129.5,127.5C 138.913,87.7543 163.579,63.421 203.5,54.5 Z M 201.5,61.5 C 206.547,61.3375 211.547,61.6708 216.5,62.5C 216.586,63.4959 216.252,64.3292 215.5,65C 201.135,72.7016 189.301,83.2016 180,96.5C 173.572,92.0766 167.739,86.9099 162.5,81C 174.219,71.8072 187.219,65.3072 201.5,61.5 Z M 229.5,57.5 C 229.611,58.1174 229.944,58.6174 230.5,59C 228.753,59.3519 227.086,59.8519 225.5,60.5C 225.5,59.5 225.5,58.5 225.5,57.5C 226.833,57.5 228.167,57.5 229.5,57.5 Z"/></g>
<g><path style="opacity:1" fill="#2c4489" d="M 548.5,70.5 C 547.5,70.5 546.5,70.5 545.5,70.5C 545.719,71.675 545.386,72.675 544.5,73.5C 542.465,71.9873 540.131,71.3207 537.5,71.5C 534.159,71.8357 530.825,72.1691 527.5,72.5C 527.5,71.5 527.5,70.5 527.5,69.5C 517.167,69.5 506.833,69.5 496.5,69.5C 496.5,68.5 496.5,67.5 496.5,66.5C 494.654,66.2222 493.32,66.8888 492.5,68.5C 493.908,69.2432 495.241,70.0766 496.5,71C 506.517,71.1678 516.517,71.6678 526.5,72.5C 515.52,73.4988 504.52,73.8321 493.5,73.5C 493.5,74.8333 493.5,76.1667 493.5,77.5C 492.533,78.8062 491.199,79.4729 489.5,79.5C 489.798,76.7354 490.798,74.2354 492.5,72C 491.095,70.7308 489.429,70.2308 487.5,70.5C 486.365,100.477 486.198,130.477 487,160.5C 492.094,165.377 497.594,165.71 503.5,161.5C 502.316,165.338 499.649,167.338 495.5,167.5C 489.664,167.16 486.164,164.16 485,158.5C 484.032,129.118 484.366,99.785 486,70.5C 487.637,68.1898 489.804,66.6898 492.5,66C 507.167,65.3333 521.833,65.3333 536.5,66C 541,66.4406 545,67.9406 548.5,70.5 Z"/></g>
<g><path style="opacity:1" fill="#27438d" d="M 597.5,84.5 C 597.338,82.4727 597.505,80.4727 598,78.5C 598.333,78.8333 598.667,79.1667 599,79.5C 602.411,78.7069 605.911,78.2069 609.5,78C 610.459,76.5362 611.792,75.7028 613.5,75.5C 619.91,78.3168 625.577,77.1502 630.5,72C 627.557,71.7103 625.057,70.5437 623,68.5C 620.209,69.3624 618.042,68.3624 616.5,65.5C 613.572,64.5159 610.572,64.1826 607.5,64.5C 606.014,70.8765 602.014,72.8765 595.5,70.5C 598.154,68.3863 600.987,67.7197 604,68.5C 604.483,67.552 604.649,66.552 604.5,65.5C 603.209,65.7373 602.209,65.404 601.5,64.5C 615.95,61.5576 629.283,64.0576 641.5,72C 647.96,77.3785 650.46,84.2118 649,92.5C 645.21,98.211 640.377,99.3777 634.5,96C 632.208,92.5838 630.041,89.0838 628,85.5C 626.062,82.8941 623.562,81.0608 620.5,80C 615.167,79.3333 609.833,79.3333 604.5,80C 601.798,81.0121 599.465,82.5121 597.5,84.5 Z"/></g>
<g><path style="opacity:1" fill="#284392" d="M 548.5,70.5 C 550.749,71.0798 552.415,72.4131 553.5,74.5C 554.799,79.0704 556.465,83.4037 558.5,87.5C 556.208,87.7564 554.041,87.4231 552,86.5C 551.821,83.4465 551.321,80.4465 550.5,77.5C 549.251,75.5245 547.751,75.1912 546,76.5C 545.659,80.5309 544.159,84.0309 541.5,87C 542.549,87.4922 543.549,87.3256 544.5,86.5C 545.429,87.6888 545.762,89.0222 545.5,90.5C 543.876,90.6399 542.71,89.9733 542,88.5C 541.026,90.8776 540.359,90.5443 540,87.5C 539.329,86.7476 538.496,86.4142 537.5,86.5C 535.315,84.2384 532.648,82.7384 529.5,82C 521.507,81.5003 513.507,81.3336 505.5,81.5C 503.989,80.4975 502.322,79.8308 500.5,79.5C 500.949,81.9775 500.283,83.9775 498.5,85.5C 497.5,85.1667 496.833,84.5 496.5,83.5C 497.246,82.2638 497.579,80.9305 497.5,79.5C 495.517,79.8432 494.183,79.1765 493.5,77.5C 493.5,76.1667 493.5,74.8333 493.5,73.5C 504.52,73.8321 515.52,73.4988 526.5,72.5C 516.517,71.6678 506.517,71.1678 496.5,71C 495.241,70.0766 493.908,69.2432 492.5,68.5C 493.32,66.8888 494.654,66.2222 496.5,66.5C 496.5,67.5 496.5,68.5 496.5,69.5C 506.833,69.5 517.167,69.5 527.5,69.5C 527.5,70.5 527.5,71.5 527.5,72.5C 530.825,72.1691 534.159,71.8357 537.5,71.5C 540.131,71.3207 542.465,71.9873 544.5,73.5C 545.386,72.675 545.719,71.675 545.5,70.5C 546.5,70.5 547.5,70.5 548.5,70.5 Z"/></g>
<g><path style="opacity:1" fill="#27448e" d="M 461.5,108.5 C 460.078,108.291 458.745,107.791 457.5,107C 443.122,106.184 428.788,106.351 414.5,107.5C 412.826,106.12 411.16,104.787 409.5,103.5C 408.558,103.608 407.725,103.941 407,104.5C 406.43,101.067 405.097,98.0667 403,95.5C 402.13,96.1079 401.63,96.9412 401.5,98C 402.104,100.524 402.771,103.024 403.5,105.5C 402.923,107.55 401.59,108.55 399.5,108.5C 399.785,106.712 399.452,105.045 398.5,103.5C 397.52,106.086 397.187,108.753 397.5,111.5C 398.833,111.5 400.167,111.5 401.5,111.5C 401.374,113.2 400.707,114.7 399.5,116C 399.833,116.5 400.167,117 400.5,117.5C 403.226,117.145 405.226,115.812 406.5,113.5C 404.998,103.988 406.665,103.322 411.5,111.5C 411.291,112.086 410.957,112.586 410.5,113C 411.91,113.368 412.91,114.201 413.5,115.5C 411.647,116.76 409.814,116.76 408,115.5C 407.506,117.134 407.34,118.801 407.5,120.5C 404.665,121.786 401.832,121.786 399,120.5C 398.5,128.159 398.334,135.826 398.5,143.5C 397.5,143.5 396.5,143.5 395.5,143.5C 395.223,126.149 395.556,108.816 396.5,91.5C 396.262,87.2995 395.429,83.2995 394,79.5C 393.5,100.831 393.333,122.164 393.5,143.5C 392.833,120.833 392.167,98.1667 391.5,75.5C 392.196,70.6398 394.863,67.4731 399.5,66C 420.5,65.3333 441.5,65.3333 462.5,66C 469.158,69.9338 469.824,74.6004 464.5,80C 447.925,81.3049 431.258,81.9716 414.5,82C 413.208,85.5712 412.542,89.4045 412.5,93.5C 412.517,97.4162 412.85,101.25 413.5,105C 428.833,105.333 444.167,105.667 459.5,106C 460.381,106.708 461.047,107.542 461.5,108.5 Z"/></g>
<g><path style="opacity:1" fill="#264393" d="M 402.5,67.5 C 423.468,68.2562 444.468,68.9228 465.5,69.5C 466.198,74.5969 464.198,78.0969 459.5,80C 443.456,80.8178 427.456,80.6512 411.5,79.5C 409.869,81.0588 409.036,83.0588 409,85.5C 407.921,87.3937 406.587,87.727 405,86.5C 404.503,84.1902 404.337,81.8568 404.5,79.5C 403.5,79.5 402.5,79.5 401.5,79.5C 401.666,83.5138 401.499,87.5138 401,91.5C 400.586,91.9574 400.086,92.2907 399.5,92.5C 397.847,87.6463 397.181,82.6463 397.5,77.5C 418.177,77.833 438.844,77.4997 459.5,76.5C 439.511,75.5004 419.511,75.167 399.5,75.5C 399.719,74.325 399.386,73.325 398.5,72.5C 397.409,74.0148 396.076,74.8481 394.5,75C 394.799,73.6796 394.966,72.1796 395,70.5C 397.378,69.0331 399.878,68.0331 402.5,67.5 Z"/></g>
<g><path style="opacity:1" fill="#27438e" d="M 553.5,74.5 C 559.344,80.3759 562.01,87.5426 561.5,96C 561.707,104.898 558.707,112.398 552.5,118.5C 552.5,117.167 552.5,115.833 552.5,114.5C 551.167,114.5 549.833,114.5 548.5,114.5C 548.5,113.5 548.5,112.5 548.5,111.5C 546.179,111.771 544.179,111.104 542.5,109.5C 541.749,110.376 541.249,111.376 541,112.5C 539.601,111.773 538.101,111.273 536.5,111C 542.102,107.488 541.768,106.321 535.5,107.5C 541.235,101.011 541.902,94.0111 537.5,86.5C 538.496,86.4142 539.329,86.7476 540,87.5C 540.359,90.5443 541.026,90.8776 542,88.5C 542.71,89.9733 543.876,90.6399 545.5,90.5C 545.762,89.0222 545.429,87.6888 544.5,86.5C 543.549,87.3256 542.549,87.4922 541.5,87C 544.159,84.0309 545.659,80.5309 546,76.5C 547.751,75.1912 549.251,75.5245 550.5,77.5C 551.321,80.4465 551.821,83.4465 552,86.5C 554.041,87.4231 556.208,87.7564 558.5,87.5C 556.465,83.4037 554.799,79.0704 553.5,74.5 Z"/></g>
<g><path style="opacity:1" fill="#274491" d="M 601.5,64.5 C 602.209,65.404 603.209,65.7373 604.5,65.5C 604.649,66.552 604.483,67.552 604,68.5C 600.987,67.7197 598.154,68.3863 595.5,70.5C 602.014,72.8765 606.014,70.8765 607.5,64.5C 610.572,64.1826 613.572,64.5159 616.5,65.5C 618.042,68.3624 620.209,69.3624 623,68.5C 625.057,70.5437 627.557,71.7103 630.5,72C 625.577,77.1502 619.91,78.3168 613.5,75.5C 611.792,75.7028 610.459,76.5362 609.5,78C 605.911,78.2069 602.411,78.7069 599,79.5C 598.667,79.1667 598.333,78.8333 598,78.5C 597.505,80.4727 597.338,82.4727 597.5,84.5C 595.782,86.9262 595.282,89.5929 596,92.5C 598.074,96.0769 600.907,98.7435 604.5,100.5C 606.277,101.6 608.277,102.434 610.5,103C 608.436,103.653 606.769,104.82 605.5,106.5C 604.269,107.651 604.269,108.817 605.5,110C 608.937,111.857 612.604,113.191 616.5,114C 616.833,115 617.167,116 617.5,117C 620.043,117.14 622.377,117.806 624.5,119C 618.711,119.56 613.044,119.06 607.5,117.5C 607.5,116.167 607.5,114.833 607.5,113.5C 602.61,113.639 602.277,115.139 606.5,118C 603.493,118.301 600.493,118.135 597.5,117.5C 577.23,110.532 571.397,97.1989 580,77.5C 585.558,70.4723 592.725,66.139 601.5,64.5 Z"/></g>
<g><path style="opacity:1" fill="#274490" d="M 493.5,77.5 C 494.183,79.1765 495.517,79.8432 497.5,79.5C 497.579,80.9305 497.246,82.2638 496.5,83.5C 496.833,84.5 497.5,85.1667 498.5,85.5C 500.283,83.9775 500.949,81.9775 500.5,79.5C 502.322,79.8308 503.989,80.4975 505.5,81.5C 505.5,91.1667 505.5,100.833 505.5,110.5C 513.507,110.666 521.507,110.5 529.5,110C 531.628,109.345 533.628,108.511 535.5,107.5C 541.768,106.321 542.102,107.488 536.5,111C 538.101,111.273 539.601,111.773 541,112.5C 541.249,111.376 541.749,110.376 542.5,109.5C 544.179,111.104 546.179,111.771 548.5,111.5C 548.5,112.5 548.5,113.5 548.5,114.5C 549.833,114.5 551.167,114.5 552.5,114.5C 552.5,115.833 552.5,117.167 552.5,118.5C 547.265,122.64 541.265,125.14 534.5,126C 530.579,126.203 526.745,126.703 523,127.5C 517.67,127.248 512.336,126.915 507,126.5C 505.689,137.342 505.022,148.342 505,159.5C 504.722,160.416 504.222,161.082 503.5,161.5C 497.594,165.71 492.094,165.377 487,160.5C 486.198,130.477 486.365,100.477 487.5,70.5C 489.429,70.2308 491.095,70.7308 492.5,72C 490.798,74.2354 489.798,76.7354 489.5,79.5C 491.199,79.4729 492.533,78.8062 493.5,77.5 Z"/></g>
<g><path style="opacity:1" fill="#253e83" d="M 292.5,88.5 C 313.364,116.548 317.697,146.881 305.5,179.5C 306.855,175.756 306.688,172.089 305,168.5C 304.328,172.726 302.828,176.393 300.5,179.5C 304.084,169.828 306.084,159.828 306.5,149.5C 307.833,149.5 309.167,149.5 310.5,149.5C 310.657,148.127 310.49,146.793 310,145.5C 309.667,145.833 309.333,146.167 309,146.5C 306.286,145.004 303.453,144.004 300.5,143.5C 302.5,143.5 304.5,143.5 306.5,143.5C 305.736,125.875 300.403,109.875 290.5,95.5C 291.478,95.189 292.145,94.5223 292.5,93.5C 291.265,91.6837 291.265,90.017 292.5,88.5 Z"/></g>
<g><path style="opacity:0.98" fill="#223c83" d="M 292.5,88.5 C 291.265,90.017 291.265,91.6837 292.5,93.5C 292.145,94.5223 291.478,95.189 290.5,95.5C 287.198,92.0257 284.032,88.359 281,84.5C 277.318,88.0152 273.818,91.6819 270.5,95.5C 279.815,109.746 284.982,125.413 286,142.5C 289.73,143.46 293.563,143.793 297.5,143.5C 293.689,144.645 289.689,144.812 285.5,144C 283.819,140.534 282.819,140.7 282.5,144.5C 280.901,144.768 279.568,144.434 278.5,143.5C 280.195,127.32 276.029,112.32 266,98.5C 254.479,106.676 241.646,111.509 227.5,113C 226.244,113.417 225.577,114.25 225.5,115.5C 224.672,121.987 224.172,128.654 224,135.5C 223.581,136.672 222.915,137.672 222,138.5C 221.819,129.589 221.319,120.755 220.5,112C 222.689,111.323 223.022,110.156 221.5,108.5C 222.689,107.571 224.022,107.238 225.5,107.5C 239.558,107.151 251.892,102.484 262.5,93.5C 252.835,80.8349 240.501,71.8349 225.5,66.5C 225.5,77.8333 225.5,89.1667 225.5,100.5C 224.805,92.6291 224.138,84.6291 223.5,76.5C 225.237,72.0039 224.571,68.0039 221.5,64.5C 222.333,64.1667 223.167,63.8333 224,63.5C 226.93,65.2381 230.097,65.7381 233.5,65C 232.549,64.2825 232.383,63.4491 233,62.5C 235.167,60.6667 237.333,58.8333 239.5,57C 237.5,56.5 235.5,56 233.5,55.5C 232.133,56.2255 230.8,56.8921 229.5,57.5C 228.167,57.5 226.833,57.5 225.5,57.5C 225.5,58.5 225.5,59.5 225.5,60.5C 222.027,59.0714 219.027,59.7381 216.5,62.5C 211.547,61.6708 206.547,61.3375 201.5,61.5C 205.647,60.6753 209.981,60.1753 214.5,60C 214.167,59.6667 213.833,59.3333 213.5,59C 215.037,57.8904 215.703,56.3904 215.5,54.5C 212.675,54.1616 210.508,55.1616 209,57.5C 207.281,56.1312 205.448,55.1312 203.5,54.5C 239.512,49.7191 269.179,61.0524 292.5,88.5 Z M 234.5,62.5 C 250.75,63.9602 264.75,70.2935 276.5,81.5C 273.833,84.8333 270.833,87.8333 267.5,90.5C 258.379,79.9385 247.713,71.2718 235.5,64.5C 234.702,64.0431 234.369,63.3764 234.5,62.5 Z M 229.5,57.5 C 229.611,58.1174 229.944,58.6174 230.5,59C 228.753,59.3519 227.086,59.8519 225.5,60.5C 225.5,59.5 225.5,58.5 225.5,57.5C 226.833,57.5 228.167,57.5 229.5,57.5 Z"/></g>
<g><path style="opacity:1" fill="#27438f" d="M 461.5,108.5 C 462.117,108.611 462.617,108.944 463,109.5C 464.992,115.337 463.158,119.171 457.5,121C 442.504,121.5 427.504,121.667 412.5,121.5C 412.5,130.5 412.5,139.5 412.5,148.5C 429.503,148.333 446.503,148.5 463.5,149C 468.355,151.2 470.021,154.7 468.5,159.5C 468.597,156.686 467.431,154.686 465,153.5C 464.055,153.905 463.388,154.572 463,155.5C 447.574,154.343 432.074,154.176 416.5,155C 415.584,155.374 414.75,155.874 414,156.5C 412.815,154.623 411.815,152.623 411,150.5C 410.428,139.46 410.428,128.46 411,117.5C 409.641,118.365 408.474,119.365 407.5,120.5C 407.34,118.801 407.506,117.134 408,115.5C 409.814,116.76 411.647,116.76 413.5,115.5C 412.91,114.201 411.91,113.368 410.5,113C 410.957,112.586 411.291,112.086 411.5,111.5C 406.665,103.322 404.998,103.988 406.5,113.5C 405.226,115.812 403.226,117.145 400.5,117.5C 400.167,117 399.833,116.5 399.5,116C 400.707,114.7 401.374,113.2 401.5,111.5C 400.167,111.5 398.833,111.5 397.5,111.5C 397.187,108.753 397.52,106.086 398.5,103.5C 399.452,105.045 399.785,106.712 399.5,108.5C 401.59,108.55 402.923,107.55 403.5,105.5C 402.771,103.024 402.104,100.524 401.5,98C 401.63,96.9412 402.13,96.1079 403,95.5C 405.097,98.0667 406.43,101.067 407,104.5C 407.725,103.941 408.558,103.608 409.5,103.5C 411.16,104.787 412.826,106.12 414.5,107.5C 428.788,106.351 443.122,106.184 457.5,107C 458.745,107.791 460.078,108.291 461.5,108.5 Z"/></g>
<g><path style="opacity:1" fill="#27438f" d="M 604.5,100.5 C 618.508,103.114 631.841,107.614 644.5,114C 653.431,122.166 656.098,131.999 652.5,143.5C 650.51,146.382 648.51,149.382 646.5,152.5C 645.355,151.224 645.355,149.891 646.5,148.5C 643.442,146.731 641.609,144.064 641,140.5C 640.667,137.5 640.333,134.5 640,131.5C 638.817,130.269 637.651,130.269 636.5,131.5C 637.443,136.1 637.777,140.767 637.5,145.5C 636.167,145.5 634.833,145.5 633.5,145.5C 633.83,142.843 634.163,140.176 634.5,137.5C 634.415,135.667 633.748,134.334 632.5,133.5C 630.586,129.092 627.252,126.259 622.5,125C 613.911,122.942 605.578,120.442 597.5,117.5C 600.493,118.135 603.493,118.301 606.5,118C 602.277,115.139 602.61,113.639 607.5,113.5C 607.5,114.833 607.5,116.167 607.5,117.5C 613.044,119.06 618.711,119.56 624.5,119C 622.377,117.806 620.043,117.14 617.5,117C 617.167,116 616.833,115 616.5,114C 612.604,113.191 608.937,111.857 605.5,110C 604.269,108.817 604.269,107.651 605.5,106.5C 606.769,104.82 608.436,103.653 610.5,103C 608.277,102.434 606.277,101.6 604.5,100.5 Z"/></g>
<g><path style="opacity:1" fill="#284492" d="M 407.5,120.5 C 408.474,119.365 409.641,118.365 411,117.5C 410.428,128.46 410.428,139.46 411,150.5C 411.815,152.623 412.815,154.623 414,156.5C 414.75,155.874 415.584,155.374 416.5,155C 432.074,154.176 447.574,154.343 463,155.5C 463.388,154.572 464.055,153.905 465,153.5C 467.431,154.686 468.597,156.686 468.5,159.5C 466.946,160.693 465.279,161.86 463.5,163C 442.5,163.667 421.5,163.667 400.5,163C 396.269,162.957 394.436,160.79 395,156.5C 394.667,156.833 394.333,157.167 394,157.5C 393.501,152.845 393.334,148.179 393.5,143.5C 393.333,122.164 393.5,100.831 394,79.5C 395.429,83.2995 396.262,87.2995 396.5,91.5C 395.556,108.816 395.223,126.149 395.5,143.5C 396.5,143.5 397.5,143.5 398.5,143.5C 398.334,135.826 398.5,128.159 399,120.5C 401.832,121.786 404.665,121.786 407.5,120.5 Z"/></g>
<g><path style="opacity:1" fill="#28438d" d="M 632.5,133.5 C 633.748,134.334 634.415,135.667 634.5,137.5C 634.163,140.176 633.83,142.843 633.5,145.5C 634.833,145.5 636.167,145.5 637.5,145.5C 637.777,140.767 637.443,136.1 636.5,131.5C 637.651,130.269 638.817,130.269 640,131.5C 640.333,134.5 640.667,137.5 641,140.5C 641.609,144.064 643.442,146.731 646.5,148.5C 645.355,149.891 645.355,151.224 646.5,152.5C 648.51,149.382 650.51,146.382 652.5,143.5C 649.514,153.323 643.181,160.156 633.5,164C 616.664,169.728 600.664,168.061 585.5,159C 578.775,153.386 574.775,146.219 573.5,137.5C 575.645,129.392 580.645,126.892 588.5,130C 592.252,136.172 596.252,142.172 600.5,148C 610.054,152.918 619.387,152.584 628.5,147C 632.585,143.252 633.918,138.752 632.5,133.5 Z"/></g>
<g><path style="opacity:0.929" fill="#213b7e" d="M 220.5,69.5 C 222.024,80.963 222.857,92.6297 223,104.5C 223.708,103.619 224.542,102.953 225.5,102.5C 225.5,104.167 225.5,105.833 225.5,107.5C 224.022,107.238 222.689,107.571 221.5,108.5C 223.022,110.156 222.689,111.323 220.5,112C 221.319,120.755 221.819,129.589 222,138.5C 222.915,137.672 223.581,136.672 224,135.5C 224.172,128.654 224.672,121.987 225.5,115.5C 225.5,124.833 225.5,134.167 225.5,143.5C 239.5,143.5 253.5,143.5 267.5,143.5C 256.285,145.3 244.951,145.967 233.5,145.5C 233.5,146.833 233.5,148.167 233.5,149.5C 230.833,149.5 228.167,149.5 225.5,149.5C 225.5,158.833 225.5,168.167 225.5,177.5C 224.833,168.991 224.167,160.324 223.5,151.5C 222.692,153.423 222.192,155.423 222,157.5C 221.5,166.16 221.334,174.827 221.5,183.5C 217.958,183.813 214.625,183.479 211.5,182.5C 214.5,182.5 217.5,182.5 220.5,182.5C 220.5,171.5 220.5,160.5 220.5,149.5C 219.167,149.5 217.833,149.5 216.5,149.5C 215.177,147.314 213.177,145.814 210.5,145C 211.416,144.722 212.082,144.222 212.5,143.5C 215.167,143.5 217.833,143.5 220.5,143.5C 220.5,133.5 220.5,123.5 220.5,113.5C 206.697,113.731 193.863,110.398 182,103.5C 180.726,106.391 179.226,109.058 177.5,111.5C 177.357,109.738 177.691,108.071 178.5,106.5C 177.675,105.614 176.675,105.281 175.5,105.5C 175.66,103.847 176.326,102.514 177.5,101.5C 177.5,102.5 177.5,103.5 177.5,104.5C 180.501,103.666 183.168,102.333 185.5,100.5C 192.033,102.955 198.7,105.122 205.5,107C 210.508,107.501 215.508,108.001 220.5,108.5C 220.5,95.5 220.5,82.5 220.5,69.5 Z"/></g>
<g><path style="opacity:0.806" fill="#030203" d="M 673.5,144.5 C 676.883,144.257 680.049,144.924 683,146.5C 684.11,148.397 684.276,150.23 683.5,152C 672.413,150.092 672.08,151.092 682.5,155C 684.074,156.826 684.907,158.993 685,161.5C 686.609,156.177 688.109,150.844 689.5,145.5C 692.255,143.875 694.755,144.208 697,146.5C 699.733,153.343 701.9,160.343 703.5,167.5C 701.473,167.662 699.473,167.495 697.5,167C 694.833,162.333 692.167,162.333 689.5,167C 686.87,167.845 684.536,167.345 682.5,165.5C 678.056,168.869 673.389,169.202 668.5,166.5C 667.167,164.167 667.167,161.833 668.5,159.5C 670.607,160.637 672.773,161.637 675,162.5C 676.059,162.37 676.892,161.87 677.5,161C 673.793,160.064 670.626,158.231 668,155.5C 666.185,149.855 668.018,146.188 673.5,144.5 Z"/></g>
<g><path style="opacity:0.801" fill="#020202" d="M 707.5,144.5 C 711.995,144.493 716.162,145.493 720,147.5C 722.166,151.507 721.666,155.174 718.5,158.5C 720.972,161.115 722.638,164.115 723.5,167.5C 721.143,167.663 718.81,167.497 716.5,167C 714.641,165.442 713.141,163.609 712,161.5C 712.313,166.885 709.813,168.885 704.5,167.5C 704.5,160.167 704.5,152.833 704.5,145.5C 705.791,145.737 706.791,145.404 707.5,144.5 Z M 711.5,150.5 C 714.861,151.203 715.194,152.537 712.5,154.5C 711.571,153.311 711.238,151.978 711.5,150.5 Z"/></g>
<g><path style="opacity:0.761" fill="#040303" d="M 724.5,145.5 C 726.792,145.244 728.959,145.577 731,146.5C 731.802,151.419 731.635,156.252 730.5,161C 733.226,161.182 735.893,161.682 738.5,162.5C 739.747,164.042 739.747,165.542 738.5,167C 733.845,167.499 729.179,167.666 724.5,167.5C 724.5,160.167 724.5,152.833 724.5,145.5 Z"/></g>
<g><path style="opacity:0.974" fill="#223b83" d="M 129.5,127.5 C 129.03,130.346 129.863,132.679 132,134.5C 132.417,133.244 133.25,132.577 134.5,132.5C 133.577,136.064 133.244,139.731 133.5,143.5C 135.167,143.5 136.833,143.5 138.5,143.5C 138.196,144.15 137.863,144.817 137.5,145.5C 138.729,146.281 140.062,146.781 141.5,147C 141.167,147.333 140.833,147.667 140.5,148C 146.348,148.173 152.015,148.673 157.5,149.5C 149.5,149.5 141.5,149.5 133.5,149.5C 134.433,173.029 143.266,193.029 160,209.5C 162.37,206.961 164.87,204.628 167.5,202.5C 165.847,206.153 163.18,208.82 159.5,210.5C 156.506,208.338 154.006,205.672 152,202.5C 151.876,204.936 152.376,207.269 153.5,209.5C 133.207,188.727 124.707,163.727 128,134.5C 128.186,131.964 128.686,129.631 129.5,127.5 Z"/></g>
<g><path style="opacity:1" fill="#264086" d="M 323.5,199.5 C 323.549,194.635 324.549,189.969 326.5,185.5C 325.533,183.238 324.866,180.905 324.5,178.5C 323.178,178.33 322.011,178.663 321,179.5C 320.665,182.97 319.165,185.637 316.5,187.5C 330.699,157.32 331.032,126.987 317.5,96.5C 317.833,96.1667 318.167,95.8333 318.5,95.5C 328.876,112.833 333.876,131.666 333.5,152C 334.045,168.783 330.711,184.617 323.5,199.5 Z"/></g>
<g><path style="opacity:1" fill="#26418b" d="M 115.5,175.5 C 113.743,174.708 112.409,173.375 111.5,171.5C 108.889,173.798 109.389,175.465 113,176.5C 113.492,177.549 113.326,178.549 112.5,179.5C 113.966,181.952 115.633,184.785 117.5,188C 116.584,188.374 115.75,188.874 115,189.5C 111.186,185.696 109.019,181.029 108.5,175.5C 106.159,177.015 104.826,179.182 104.5,182C 105.619,185.408 106.286,188.908 106.5,192.5C 91.8556,148.728 99.3556,109.061 129,73.5C 133.738,68.8839 138.571,64.3839 143.5,60C 144.332,59.3123 144.998,59.479 145.5,60.5C 112.192,92.7322 102.192,131.066 115.5,175.5 Z"/></g>
<g><path style="opacity:0.905" fill="#040406" d="M 651.5,153.5 C 655.167,153.5 658.833,153.5 662.5,153.5C 663.331,157.476 663.497,161.476 663,165.5C 661.302,166.733 659.302,167.4 657,167.5C 654.906,167.464 652.906,167.131 651,166.5C 650.232,162.08 650.398,157.747 651.5,153.5 Z"/></g>
<g><path style="opacity:1" fill="#28417f" d="M 391.5,75.5 C 392.167,98.1667 392.833,120.833 393.5,143.5C 393.334,148.179 393.501,152.845 394,157.5C 394.333,157.167 394.667,156.833 395,156.5C 394.436,160.79 396.269,162.957 400.5,163C 421.5,163.667 442.5,163.667 463.5,163C 465.279,161.86 466.946,160.693 468.5,159.5C 468.087,162.415 466.421,164.248 463.5,165C 442.167,165.667 420.833,165.667 399.5,165C 394.772,163.604 392.272,160.438 392,155.5C 391.5,128.835 391.333,102.169 391.5,75.5 Z"/></g>
<g><path style="opacity:0.991" fill="#213a85" d="M 175.5,105.5 C 176.675,105.281 177.675,105.614 178.5,106.5C 177.691,108.071 177.357,109.738 177.5,111.5C 173.276,121.733 170.942,132.4 170.5,143.5C 184.5,143.5 198.5,143.5 212.5,143.5C 212.082,144.222 211.416,144.722 210.5,145C 213.177,145.814 215.177,147.314 216.5,149.5C 201.167,149.5 185.833,149.5 170.5,149.5C 171.395,164.418 175.395,178.418 182.5,191.5C 180.023,192.12 180.023,193.12 182.5,194.5C 181.5,195.167 180.5,195.833 179.5,196.5C 180.243,197.182 180.909,197.849 181.5,198.5C 175.093,202.403 169.426,207.236 164.5,213C 165.373,214.045 166.373,214.878 167.5,215.5C 167.306,217.912 165.973,218.912 163.5,218.5C 159.544,216.212 156.211,213.212 153.5,209.5C 152.376,207.269 151.876,204.936 152,202.5C 154.006,205.672 156.506,208.338 159.5,210.5C 163.18,208.82 165.847,206.153 167.5,202.5C 170.952,199.269 174.619,196.269 178.5,193.5C 170.136,180.05 165.803,165.383 165.5,149.5C 162.833,149.5 160.167,149.5 157.5,149.5C 152.015,148.673 146.348,148.173 140.5,148C 140.833,147.667 141.167,147.333 141.5,147C 140.062,146.781 138.729,146.281 137.5,145.5C 137.863,144.817 138.196,144.15 138.5,143.5C 147.5,143.5 156.5,143.5 165.5,143.5C 165.731,129.903 169.064,117.237 175.5,105.5 Z"/></g>
<g><path style="opacity:1" fill="#4793c8" d="M 359.5,101.5 C 377.384,155.903 366.384,203.736 326.5,245C 321.578,249.763 316.244,253.93 310.5,257.5C 307.463,257.552 304.796,256.552 302.5,254.5C 305.028,253.483 305.028,252.316 302.5,251C 303.264,248.931 303.764,246.764 304,244.5C 309.086,239.483 314.086,234.483 319,229.5C 319.483,228.552 319.649,227.552 319.5,226.5C 339.227,197.919 346.894,166.252 342.5,131.5C 343.309,133.292 343.809,135.292 344,137.5C 344.333,147.167 344.667,156.833 345,166.5C 346.595,164.575 346.762,162.575 345.5,160.5C 346.254,157.223 346.754,153.89 347,150.5C 348.88,158.631 349.88,166.964 350,175.5C 350.914,176.654 351.747,176.487 352.5,175C 351.027,174.29 350.36,173.124 350.5,171.5C 352.124,171.64 353.29,170.973 354,169.5C 354.412,171.997 355.578,173.997 357.5,175.5C 358.004,167.31 359.171,159.31 361,151.5C 361.175,155.211 361.675,158.878 362.5,162.5C 363.167,162.167 363.833,161.833 364.5,161.5C 364.833,162.167 365.167,162.833 365.5,163.5C 366.833,152.833 366.833,142.167 365.5,131.5C 364.833,131.167 364.167,130.833 363.5,130.5C 360.549,124.458 358.216,118.125 356.5,111.5C 355.667,112.5 354.833,113.5 354,114.5C 353.77,111.695 354.936,109.529 357.5,108C 356.483,106.951 356.316,105.784 357,104.5C 358,106.167 359,107.833 360,109.5C 360.175,106.843 360.008,104.176 359.5,101.5 Z"/></g>
<g><path style="opacity:0.585" fill="#aa1918" d="M 680.5,177.5 C 701.007,177.17 721.34,177.503 741.5,178.5C 727.491,178.434 713.491,178.767 699.5,179.5C 692.935,179.639 686.601,178.972 680.5,177.5 Z"/></g>
<g><path style="opacity:1" fill="#d52225" d="M 428.5,177.5 C 512.524,178.126 596.524,178.126 680.5,177.5C 686.601,178.972 692.935,179.639 699.5,179.5C 713.491,178.767 727.491,178.434 741.5,178.5C 741.833,178.5 742.167,178.5 742.5,178.5C 742.5,179.167 742.5,179.833 742.5,180.5C 660.543,180.74 578.543,180.74 496.5,180.5C 458.165,180.667 419.832,180.5 381.5,180C 395.5,179.667 409.5,179.333 423.5,179C 425.382,178.802 427.048,178.302 428.5,177.5 Z"/></g>
<g><path style="opacity:1" fill="#e9272a" d="M 496.5,180.5 C 578.543,180.74 660.543,180.74 742.5,180.5C 742.5,182.5 742.5,184.5 742.5,186.5C 741.5,186.5 740.5,186.5 739.5,186.5C 739.762,185.022 739.429,183.689 738.5,182.5C 672.362,183.317 606.196,183.65 540,183.5C 530.833,183.333 521.667,183.167 512.5,183C 507.159,181.882 501.826,181.048 496.5,180.5 Z"/></g>
<g><path style="opacity:1" fill="#e6282d" d="M 398.5,177.5 C 408.5,177.5 418.5,177.5 428.5,177.5C 427.048,178.302 425.382,178.802 423.5,179C 409.5,179.333 395.5,179.667 381.5,180C 419.832,180.5 458.165,180.667 496.5,180.5C 501.826,181.048 507.159,181.882 512.5,183C 521.667,183.167 530.833,183.333 540,183.5C 606.196,183.65 672.362,183.317 738.5,182.5C 739.429,183.689 739.762,185.022 739.5,186.5C 618.833,186.5 498.167,186.5 377.5,186.5C 376.186,184.105 376.186,181.605 377.5,179C 384.679,178.829 391.679,178.329 398.5,177.5 Z"/></g>
<g><path style="opacity:0.773" fill="#d53b3c" d="M 742.5,178.5 C 743.818,181.565 743.818,184.731 742.5,188C 720.503,188.5 698.503,188.667 676.5,188.5C 576.833,187.833 477.167,187.167 377.5,186.5C 498.167,186.5 618.833,186.5 739.5,186.5C 740.5,186.5 741.5,186.5 742.5,186.5C 742.5,184.5 742.5,182.5 742.5,180.5C 742.5,179.833 742.5,179.167 742.5,178.5 Z"/></g>
<g><path style="opacity:0.016" fill="#b23d3c" d="M 398.5,177.5 C 391.679,178.329 384.679,178.829 377.5,179C 376.186,181.605 376.186,184.105 377.5,186.5C 477.167,187.167 576.833,187.833 676.5,188.5C 576.164,188.833 475.831,188.5 375.5,187.5C 374.033,184.138 374.366,180.971 376.5,178C 383.826,177.5 391.159,177.334 398.5,177.5 Z"/></g>
<g><path style="opacity:1" fill="#223c86" d="M 225.5,177.5 C 225.5,179.167 225.5,180.833 225.5,182.5C 236.502,183.279 246.836,186.279 256.5,191.5C 255.531,192.309 254.698,193.309 254,194.5C 252.644,193.62 251.144,193.286 249.5,193.5C 242.051,190.684 234.384,188.684 226.5,187.5C 225.501,200.483 225.168,213.483 225.5,226.5C 227.325,228.66 229.659,230.16 232.5,231C 231.862,232.707 231.862,234.54 232.5,236.5C 227.156,236.666 221.823,236.499 216.5,236C 212.23,233.441 212.564,231.941 217.5,231.5C 217.737,230.209 217.404,229.209 216.5,228.5C 202.403,221.408 190.736,211.408 181.5,198.5C 180.909,197.849 180.243,197.182 179.5,196.5C 180.5,195.833 181.5,195.167 182.5,194.5C 180.023,193.12 180.023,192.12 182.5,191.5C 191.729,187.09 201.396,184.09 211.5,182.5C 214.625,183.479 217.958,183.813 221.5,183.5C 221.334,174.827 221.5,166.16 222,157.5C 222.192,155.423 222.692,153.423 223.5,151.5C 224.167,160.324 224.833,168.991 225.5,177.5 Z M 211.5,187.5 C 214.5,187.5 217.5,187.5 220.5,187.5C 220.832,199.851 220.499,212.185 219.5,224.5C 206.076,218.081 195.076,208.747 186.5,196.5C 187.779,194.854 189.445,193.687 191.5,193C 198.129,190.513 204.796,188.679 211.5,187.5 Z"/></g>
<g><path style="opacity:0.98" fill="#213c86" d="M 297.5,143.5 C 298.5,143.5 299.5,143.5 300.5,143.5C 303.453,144.004 306.286,145.004 309,146.5C 309.333,146.167 309.667,145.833 310,145.5C 310.49,146.793 310.657,148.127 310.5,149.5C 309.167,149.5 307.833,149.5 306.5,149.5C 299.5,149.5 292.5,149.5 285.5,149.5C 285.592,157.688 284.426,165.688 282,173.5C 278.883,183.063 274.716,192.063 269.5,200.5C 269.719,201.675 269.386,202.675 268.5,203.5C 266.885,202.846 265.218,202.346 263.5,202C 262.809,200.933 262.309,199.766 262,198.5C 260.155,197.95 258.655,196.95 257.5,195.5C 258.905,195.24 260.238,194.907 261.5,194.5C 262.721,195.028 263.887,195.695 265,196.5C 274.934,182.437 280.101,166.771 280.5,149.5C 264.833,149.5 249.167,149.5 233.5,149.5C 233.5,148.167 233.5,146.833 233.5,145.5C 244.951,145.967 256.285,145.3 267.5,143.5C 271.167,143.5 274.833,143.5 278.5,143.5C 279.568,144.434 280.901,144.768 282.5,144.5C 282.819,140.7 283.819,140.534 285.5,144C 289.689,144.812 293.689,144.645 297.5,143.5 Z"/></g>
<g><path style="opacity:1" fill="#274390" d="M 115.5,175.5 C 120.947,190.398 128.947,203.731 139.5,215.5C 140.663,218.36 140.663,220.86 139.5,223C 138.78,225.122 137.613,225.622 136,224.5C 135.411,228.07 134.077,228.404 132,225.5C 130.715,225.95 129.548,226.617 128.5,227.5C 127.167,225.833 125.833,224.167 124.5,222.5C 125.681,220.802 125.681,219.135 124.5,217.5C 123.476,218.853 122.143,219.52 120.5,219.5C 114.526,211.22 109.859,202.22 106.5,192.5C 106.286,188.908 105.619,185.408 104.5,182C 104.826,179.182 106.159,177.015 108.5,175.5C 109.019,181.029 111.186,185.696 115,189.5C 115.75,188.874 116.584,188.374 117.5,188C 115.633,184.785 113.966,181.952 112.5,179.5C 113.326,178.549 113.492,177.549 113,176.5C 109.389,175.465 108.889,173.798 111.5,171.5C 112.409,173.375 113.743,174.708 115.5,175.5 Z"/></g>
<g><path style="opacity:0.692" fill="#0b090a" d="M 389.5,199.5 C 392.572,199.183 395.572,199.516 398.5,200.5C 398.291,201.086 397.957,201.586 397.5,202C 394.854,202.497 392.187,202.664 389.5,202.5C 389.5,201.5 389.5,200.5 389.5,199.5 Z"/></g>
<g><path style="opacity:0.518" fill="#090808" d="M 507.5,199.5 C 510.5,199.5 513.5,199.5 516.5,199.5C 516.5,200.5 516.5,201.5 516.5,202.5C 513.5,202.5 510.5,202.5 507.5,202.5C 507.5,201.5 507.5,200.5 507.5,199.5 Z"/></g>
<g><path style="opacity:0.866" fill="#090808" d="M 653.5,199.5 C 656.5,199.5 659.5,199.5 662.5,199.5C 662.5,200.5 662.5,201.5 662.5,202.5C 659.5,202.5 656.5,202.5 653.5,202.5C 653.5,201.5 653.5,200.5 653.5,199.5 Z"/></g>
<g><path style="opacity:0.992" fill="#080606" d="M 718.5,192.5 C 720.124,192.36 721.29,193.027 722,194.5C 724.143,202.4 725.643,210.4 726.5,218.5C 724.876,218.64 723.71,217.973 723,216.5C 721.178,208.549 719.678,200.549 718.5,192.5 Z"/></g>
<g><path style="opacity:0.976" fill="#233c82" d="M 305.5,179.5 C 295.379,205.62 277.045,223.287 250.5,232.5C 249.341,230.75 247.674,229.75 245.5,229.5C 256.456,225.853 266.456,220.353 275.5,213C 272.333,209.833 269.167,206.667 266,203.5C 263.666,207 260.832,210 257.5,212.5C 257.879,209.433 256.879,208.433 254.5,209.5C 256.448,206.492 258.781,203.659 261.5,201C 257.907,197.711 253.907,195.211 249.5,193.5C 251.144,193.286 252.644,193.62 254,194.5C 254.698,193.309 255.531,192.309 256.5,191.5C 258.368,192.263 260.035,193.263 261.5,194.5C 260.238,194.907 258.905,195.24 257.5,195.5C 258.655,196.95 260.155,197.95 262,198.5C 262.309,199.766 262.809,200.933 263.5,202C 265.218,202.346 266.885,202.846 268.5,203.5C 269.386,202.675 269.719,201.675 269.5,200.5C 272.797,203.296 275.964,206.296 279,209.5C 287.998,200.691 295.165,190.691 300.5,179.5C 302.828,176.393 304.328,172.726 305,168.5C 306.688,172.089 306.855,175.756 305.5,179.5 Z"/></g>
<g><path style="opacity:0.668" fill="#0b0b0b" d="M 452.5,211.5 C 454.905,211.134 457.238,210.467 459.5,209.5C 460.167,209.833 460.833,210.167 461.5,210.5C 460.737,211.719 459.737,212.719 458.5,213.5C 460.663,215.72 463.163,216.053 466,214.5C 466.906,212.256 467.406,209.923 467.5,207.5C 466.831,202.823 466.165,198.157 465.5,193.5C 467.124,193.36 468.29,194.027 469,195.5C 470.456,201.097 470.789,206.763 470,212.5C 468.171,218.158 464.337,219.992 458.5,218C 456.695,217.028 455.028,215.861 453.5,214.5C 447.117,217.466 440.45,218.632 433.5,218C 432.069,217.535 430.903,216.701 430,215.5C 428.877,208.55 428.044,201.55 427.5,194.5C 428.363,192.128 429.529,192.128 431,194.5C 431.942,200.803 432.609,207.137 433,213.5C 435.841,215.504 439.007,216.004 442.5,215C 439.197,213.993 438.03,211.827 439,208.5C 444.015,203.736 449.849,202.402 456.5,204.5C 457.614,205.723 457.781,207.056 457,208.5C 455.348,209.399 453.848,210.399 452.5,211.5 Z M 452.5,211.5 C 449.375,212.479 446.042,212.813 442.5,212.5C 443.232,208.213 445.899,206.213 450.5,206.5C 451.5,206.667 452.5,206.833 453.5,207C 451.545,207.953 449.878,209.287 448.5,211C 449.793,211.49 451.127,211.657 452.5,211.5 Z"/></g>
<g><path style="opacity:0.702" fill="#080708" d="M 617.5,192.5 C 618.496,192.414 619.329,192.748 620,193.5C 620.333,199.167 620.667,204.833 621,210.5C 621.641,212.813 622.974,214.48 625,215.5C 627.218,213.008 628.384,210.008 628.5,206.5C 627.572,202.197 626.906,197.864 626.5,193.5C 627.5,193.5 628.5,193.5 629.5,193.5C 631.697,200.812 631.863,208.145 630,215.5C 626.021,219.644 622.355,219.31 619,214.5C 617.833,215.667 616.667,216.833 615.5,218C 608.243,219.588 601.743,218.088 596,213.5C 592.773,214.864 589.606,216.364 586.5,218C 581.97,218.947 577.636,218.447 573.5,216.5C 568.975,219.96 564.308,219.96 559.5,216.5C 563.041,215.8 566.541,215.133 570,214.5C 569.216,210.895 568.383,207.228 567.5,203.5C 568.822,203.33 569.989,203.663 571,204.5C 572.343,208.51 574.509,212.01 577.5,215C 584.12,215.697 590.12,214.03 595.5,210C 593.167,208.833 590.833,207.667 588.5,206.5C 586.668,207.248 585.001,208.248 583.5,209.5C 582.5,209.167 581.833,208.5 581.5,207.5C 583.359,205.808 585.359,204.308 587.5,203C 586.643,202.311 585.977,201.478 585.5,200.5C 587.045,199.548 588.712,199.215 590.5,199.5C 590.64,201.124 589.973,202.29 588.5,203C 594.307,206.77 600.641,209.27 607.5,210.5C 607.291,211.086 606.957,211.586 606.5,212C 600.296,211.993 599.63,212.993 604.5,215C 607.5,215.667 610.5,215.667 613.5,215C 615.487,213.681 616.654,211.848 617,209.5C 617.499,203.843 617.666,198.176 617.5,192.5 Z"/></g>
<g><path style="opacity:0.482" fill="#080606" d="M 476.5,192.5 C 478.124,192.36 479.29,193.027 480,194.5C 481.823,202.454 483.323,210.454 484.5,218.5C 482.876,218.64 481.71,217.973 481,216.5C 479.178,208.549 477.678,200.549 476.5,192.5 Z"/></g>
<g><path style="opacity:0.605" fill="#0a0a0b" d="M 518.5,203.5 C 520.89,203.685 521.89,205.018 521.5,207.5C 520.287,215.046 515.787,219.046 508,219.5C 498.292,219.229 495.792,215.062 500.5,207C 502.089,205.457 503.423,205.457 504.5,207C 502.634,209.216 501.8,211.716 502,214.5C 512.282,218.418 517.782,214.752 518.5,203.5 Z"/></g>
<g><path style="opacity:0.706" fill="#060505" d="M 707.5,193.5 C 710.766,193.433 712.266,195.099 712,198.5C 712.861,204.585 712.527,210.585 711,216.5C 708.055,219.053 705.055,219.053 702,216.5C 698.032,219.304 694.032,219.638 690,217.5C 686.942,222.086 682.775,224.753 677.5,225.5C 677.5,224.5 677.5,223.5 677.5,222.5C 683.67,221.838 686.17,218.505 685,212.5C 683.795,209.438 682.628,206.438 681.5,203.5C 682.822,203.33 683.989,203.663 685,204.5C 686.614,208.342 688.781,211.842 691.5,215C 694.347,215.944 696.847,215.444 699,213.5C 699.988,210.576 700.654,207.576 701,204.5C 702,203.167 703,203.167 704,204.5C 704.333,207.833 704.667,211.167 705,214.5C 707.09,215.791 708.424,215.124 709,212.5C 709.768,206.052 709.268,199.719 707.5,193.5 Z"/></g>
<g><path style="opacity:0.773" fill="#090808" d="M 525.5,192.5 C 527.124,192.36 528.29,193.027 529,194.5C 529.493,201.279 530.493,207.946 532,214.5C 533.667,215.833 535.333,215.833 537,214.5C 537.543,211.132 537.376,207.799 536.5,204.5C 537.93,204.421 539.264,204.754 540.5,205.5C 550.956,201.792 555.79,205.458 555,216.5C 550.152,220.447 545.486,220.114 541,215.5C 537.264,219.012 533.264,219.345 529,216.5C 527.065,208.618 525.898,200.618 525.5,192.5 Z M 543.5,206.5 C 549.784,205.619 552.617,208.286 552,214.5C 549.681,216.936 547.181,217.103 544.5,215C 542.265,212.415 541.931,209.582 543.5,206.5 Z"/></g>
<g><path style="opacity:0.997" fill="#27438d" d="M 323.5,199.5 C 317.836,212.82 309.836,224.487 299.5,234.5C 299.643,232.738 299.309,231.071 298.5,229.5C 299.687,228.481 300.687,227.314 301.5,226C 304.222,227.07 306.388,226.237 308,223.5C 308.684,222.216 308.517,221.049 307.5,220C 308.448,219.517 309.448,219.351 310.5,219.5C 309.092,216.49 307.759,213.49 306.5,210.5C 305.127,210.343 303.793,210.51 302.5,211C 303.672,212.868 303.505,214.702 302,216.5C 299.167,218.667 296.667,221.167 294.5,224C 292.343,224.078 290.343,224.245 288.5,224.5C 289.81,227.473 291.81,229.807 294.5,231.5C 292.997,232.052 291.331,232.052 289.5,231.5C 289.5,230.5 289.5,229.5 289.5,228.5C 288.448,228.649 287.448,228.483 286.5,228C 287.696,227.346 287.696,226.846 286.5,226.5C 284.925,227.456 283.258,228.123 281.5,228.5C 296.479,217.532 308.145,203.865 316.5,187.5C 319.165,185.637 320.665,182.97 321,179.5C 322.011,178.663 323.178,178.33 324.5,178.5C 324.866,180.905 325.533,183.238 326.5,185.5C 324.549,189.969 323.549,194.635 323.5,199.5 Z"/></g>
<g><path style="opacity:0.781" fill="#090909" d="M 677.5,190.5 C 678.5,190.5 679.5,190.5 680.5,190.5C 679.538,195.922 676.538,199.755 671.5,202C 675.786,206.625 676.453,211.625 673.5,217C 669.113,220.722 665.279,220.222 662,215.5C 658.154,218.688 653.987,219.522 649.5,218C 645.818,211.52 647.484,206.854 654.5,204C 656.833,203.333 659.167,203.333 661.5,204C 664.698,207.089 666.031,210.922 665.5,215.5C 669.198,216.32 671.531,214.987 672.5,211.5C 671.819,206.496 669.152,203.496 664.5,202.5C 664.5,201.5 664.5,200.5 664.5,199.5C 671.281,200.054 675.615,197.054 677.5,190.5 Z M 654.5,206.5 C 662.564,206.562 663.564,209.395 657.5,215C 654.046,217.554 651.38,216.887 649.5,213C 650.648,210.362 652.315,208.196 654.5,206.5 Z"/></g>
<g><path style="opacity:0.633" fill="#060606" d="M 390.5,203.5 C 399.144,202.736 402.81,206.736 401.5,215.5C 402.822,215.67 403.989,215.337 405,214.5C 405.176,211.118 405.676,207.785 406.5,204.5C 407.167,204.833 407.833,205.167 408.5,205.5C 418.956,201.792 423.79,205.458 423,216.5C 418.162,220.356 413.495,220.023 409,215.5C 405.137,220.466 401.471,220.466 398,215.5C 394.154,218.688 389.987,219.522 385.5,218C 382.253,215.261 381.753,212.094 384,208.5C 385.965,206.45 388.132,204.783 390.5,203.5 Z M 411.5,206.5 C 417.83,205.666 420.663,208.333 420,214.5C 417.681,216.936 415.181,217.103 412.5,215C 410.265,212.415 409.931,209.582 411.5,206.5 Z M 391.5,206.5 C 398.869,207.154 399.535,209.987 393.5,215C 388.445,217.56 386.279,216.06 387,210.5C 388.397,208.93 389.897,207.596 391.5,206.5 Z"/></g>
<g><path style="opacity:0.612" fill="#060606" d="M 699.5,219.5 C 702.694,219.176 703.694,220.342 702.5,223C 701.207,223.49 699.873,223.657 698.5,223.5C 698.433,222.041 698.766,220.708 699.5,219.5 Z"/></g>
<g><path style="opacity:1" fill="#213c84" d="M 257.5,212.5 C 250.72,219.268 243.054,224.934 234.5,229.5C 238.155,230.586 241.822,230.586 245.5,229.5C 247.674,229.75 249.341,230.75 250.5,232.5C 226.435,241.027 202.768,239.861 179.5,229C 173.588,226.222 168.255,222.722 163.5,218.5C 165.973,218.912 167.306,217.912 167.5,215.5C 180.909,226.359 196.243,231.525 213.5,231C 215.119,230.764 216.119,229.931 216.5,228.5C 217.404,229.209 217.737,230.209 217.5,231.5C 212.564,231.941 212.23,233.441 216.5,236C 221.823,236.499 227.156,236.666 232.5,236.5C 231.862,234.54 231.862,232.707 232.5,231C 229.659,230.16 227.325,228.66 225.5,226.5C 230.032,225.237 234.365,223.403 238.5,221C 244.068,217.393 249.402,213.56 254.5,209.5C 256.879,208.433 257.879,209.433 257.5,212.5 Z"/></g>
<g><path style="opacity:0.748" fill="#040404" d="M 652.5,234.5 C 656.437,234.207 660.27,234.54 664,235.5C 664.865,237.888 664.032,239.388 661.5,240C 657.257,238.847 653.257,239.513 649.5,242C 653.447,243.085 656.947,244.919 660,247.5C 661.45,251.724 659.95,254.224 655.5,255C 651.167,255.667 646.833,255.667 642.5,255C 641.167,253.667 641.167,252.333 642.5,251C 647.282,250.881 651.949,250.215 656.5,249C 653.785,247.092 650.785,245.759 647.5,245C 645.022,243.062 644.855,240.895 647,238.5C 648.5,236.531 650.333,235.198 652.5,234.5 Z"/></g>
<g><path style="opacity:1" fill="#284390" d="M 299.5,234.5 C 291.237,243.428 281.57,250.428 270.5,255.5C 268.784,255.629 267.117,255.962 265.5,256.5C 265.5,255.5 265.5,254.5 265.5,253.5C 262.357,252.262 259.19,252.262 256,253.5C 254.272,253.546 252.772,253.046 251.5,252C 253.455,251.047 255.122,249.713 256.5,248C 258.556,247.689 260.556,247.189 262.5,246.5C 264.632,242.869 267.299,239.702 270.5,237C 269.552,236.517 268.552,236.351 267.5,236.5C 271.904,233.441 276.571,230.775 281.5,228.5C 283.258,228.123 284.925,227.456 286.5,226.5C 287.696,226.846 287.696,227.346 286.5,228C 287.448,228.483 288.448,228.649 289.5,228.5C 289.5,229.5 289.5,230.5 289.5,231.5C 291.331,232.052 292.997,232.052 294.5,231.5C 291.81,229.807 289.81,227.473 288.5,224.5C 290.343,224.245 292.343,224.078 294.5,224C 296.667,221.167 299.167,218.667 302,216.5C 303.505,214.702 303.672,212.868 302.5,211C 303.793,210.51 305.127,210.343 306.5,210.5C 307.759,213.49 309.092,216.49 310.5,219.5C 309.448,219.351 308.448,219.517 307.5,220C 308.517,221.049 308.684,222.216 308,223.5C 306.388,226.237 304.222,227.07 301.5,226C 300.687,227.314 299.687,228.481 298.5,229.5C 299.309,231.071 299.643,232.738 299.5,234.5 Z"/></g>
<g><path style="opacity:1" fill="#28438d" d="M 139.5,215.5 C 177.612,249.296 220.279,256.296 267.5,236.5C 265.382,238.933 262.716,240.6 259.5,241.5C 258.018,243.483 256.351,245.316 254.5,247C 247.492,248.89 240.825,251.556 234.5,255C 232.421,255.808 230.421,255.641 228.5,254.5C 229.5,253.667 230.5,252.833 231.5,252C 236.561,251.995 240.894,250.328 244.5,247C 242.272,246.18 240.272,246.513 238.5,248C 224.833,248.333 211.167,248.667 197.5,249C 193.814,249.559 190.147,250.226 186.5,251C 187.851,252.617 189.518,253.784 191.5,254.5C 190.653,256.061 190.986,257.561 192.5,259C 191.167,260.333 191.167,261.667 192.5,263C 197.272,265.788 202.272,266.288 207.5,264.5C 207.5,265.5 207.5,266.5 207.5,267.5C 218.184,267.411 228.85,266.911 239.5,266C 233.901,263.907 228.234,262.74 222.5,262.5C 223.833,262.167 225.167,261.833 226.5,261.5C 232.188,262.371 237.855,263.371 243.5,264.5C 245.66,264.234 247.326,263.234 248.5,261.5C 250.098,262.485 251.765,262.651 253.5,262C 255.376,260.983 257.376,260.149 259.5,259.5C 259.291,258.914 258.957,258.414 258.5,258C 261.036,257.814 263.369,257.314 265.5,256.5C 267.117,255.962 268.784,255.629 270.5,255.5C 253.714,264.906 235.548,269.573 216,269.5C 175.753,268.464 143.919,251.797 120.5,219.5C 122.143,219.52 123.476,218.853 124.5,217.5C 125.681,219.135 125.681,220.802 124.5,222.5C 125.833,224.167 127.167,225.833 128.5,227.5C 129.548,226.617 130.715,225.95 132,225.5C 134.077,228.404 135.411,228.07 136,224.5C 137.613,225.622 138.78,225.122 139.5,223C 140.663,220.86 140.663,218.36 139.5,215.5 Z"/></g>
<g><path style="opacity:0.629" fill="#050505" d="M 572.5,237.5 C 574.225,237.843 574.725,238.843 574,240.5C 572.989,241.337 571.822,241.67 570.5,241.5C 570.527,239.801 571.194,238.467 572.5,237.5 Z"/></g>
<g><path style="opacity:0.639" fill="#050505" d="M 495.5,232.5 C 503.862,230.91 508.362,234.243 509,242.5C 509.333,242.167 509.667,241.833 510,241.5C 512.28,242.086 514.447,242.92 516.5,244C 515.235,245.337 514.735,246.837 515,248.5C 517.559,244.57 521.059,242.403 525.5,242C 526.535,243.507 526.368,245.007 525,246.5C 523.167,247.667 521.333,248.833 519.5,250C 520.167,250.167 520.833,250.333 521.5,250.5C 525.789,247.879 529.456,244.545 532.5,240.5C 534.94,242.109 536.107,244.443 536,247.5C 538.683,246.107 538.85,244.774 536.5,243.5C 538.874,240.892 541.707,238.892 545,237.5C 547.681,240.907 546.681,243.573 542,245.5C 541.293,247.081 540.46,248.581 539.5,250C 542.945,248.593 545.945,246.259 548.5,243C 550.677,241.798 553.011,241.298 555.5,241.5C 555.78,244.272 555.113,246.772 553.5,249C 556.029,248.719 558.029,247.385 559.5,245C 557.043,243.846 557.043,242.512 559.5,241C 562.11,239.519 564.777,238.352 567.5,237.5C 567.977,241.866 566.144,244.866 562,246.5C 561.333,247.833 561.333,249.167 562,250.5C 564.285,248.093 566.451,245.593 568.5,243C 569.448,242.517 570.448,242.351 571.5,242.5C 571.327,245.179 570.327,247.513 568.5,249.5C 568.833,249.833 569.167,250.167 569.5,250.5C 571.76,248.823 573.427,246.657 574.5,244C 579.404,240.034 582.237,241.201 583,247.5C 584.031,243.9 586.198,242.9 589.5,244.5C 590.85,243.05 592.516,242.383 594.5,242.5C 594.432,245.085 593.932,247.418 593,249.5C 596.138,245.846 599.638,242.846 603.5,240.5C 604.42,242.881 604.42,245.214 603.5,247.5C 604.311,248.216 604.978,249.05 605.5,250C 602.261,254.934 598.594,255.434 594.5,251.5C 592.587,252.373 590.753,253.373 589,254.5C 587.956,253.377 587.29,252.044 587,250.5C 585.747,254.044 583.913,254.377 581.5,251.5C 578.076,254.921 574.91,254.921 572,251.5C 569.275,255.168 566.775,255.168 564.5,251.5C 562.754,253.854 560.421,254.854 557.5,254.5C 557.633,249.728 556.3,249.562 553.5,254C 552.552,254.483 551.552,254.649 550.5,254.5C 550.29,251.03 549.123,251.03 547,254.5C 545.686,253.687 544.519,252.687 543.5,251.5C 542.071,252.935 540.405,253.935 538.5,254.5C 536.575,254.41 535.408,253.41 535,251.5C 531.707,255.102 528.541,255.102 525.5,251.5C 523.774,253.03 521.774,254.03 519.5,254.5C 517.575,254.41 516.408,253.41 516,251.5C 510.813,255.564 508.813,254.231 510,247.5C 509.311,248.357 508.478,249.023 507.5,249.5C 507.658,245.513 506.325,245.013 503.5,248C 499.622,249.47 495.622,250.303 491.5,250.5C 491.938,254.734 490.272,256.401 486.5,255.5C 488.911,252.41 489.745,249.076 489,245.5C 492.422,244.376 494.922,242.209 496.5,239C 493.696,238.54 491.029,239.04 488.5,240.5C 487.152,238.389 487.485,236.555 489.5,235C 491.611,234.155 493.611,233.322 495.5,232.5 Z M 499.5,237.5 C 501.5,237.833 503.5,238.167 505.5,238.5C 504.61,243.553 501.61,245.72 496.5,245C 497.833,244.333 497.833,243.667 496.5,243C 497.758,241.259 498.758,239.426 499.5,237.5 Z M 530.5,245.5 C 531.797,246.849 531.63,248.182 530,249.5C 528.413,248.154 528.58,246.821 530.5,245.5 Z M 577.5,245.5 C 578.712,247.264 578.379,248.93 576.5,250.5C 575.348,248.603 575.681,246.936 577.5,245.5 Z M 549.5,247.5 C 548.878,248.627 548.045,249.627 547,250.5C 546.481,248.511 547.314,247.511 549.5,247.5 Z M 599.5,247.5 C 599.489,250.001 598.822,250.168 597.5,248C 598.094,247.536 598.761,247.369 599.5,247.5 Z"/></g>
<g><path style="opacity:0.627" fill="#050505" d="M 387.5,231.5 C 390.833,231.5 394.167,231.5 397.5,231.5C 397.785,233.288 397.452,234.955 396.5,236.5C 394.259,236.881 391.926,237.048 389.5,237C 387.5,238 385.5,239 383.5,240C 386.833,240.333 390.167,240.667 393.5,241C 394.727,242.587 394.394,243.921 392.5,245C 387.986,245.257 384.319,247.09 381.5,250.5C 386.306,251.792 390.639,250.792 394.5,247.5C 395.192,248.025 395.692,248.692 396,249.5C 396.26,242.975 399.093,237.975 404.5,234.5C 405.5,234.833 406.167,235.5 406.5,236.5C 404.54,240.925 402.206,245.092 399.5,249C 399.833,249.5 400.167,250 400.5,250.5C 401.5,249.833 402.5,249.167 403.5,248.5C 403.833,248.833 404.167,249.167 404.5,249.5C 402.822,252.861 400.155,254.528 396.5,254.5C 396.633,249.728 395.3,249.562 392.5,254C 388.372,256.066 384.039,256.732 379.5,256C 375.385,252.399 375.719,249.066 380.5,246C 382.087,245.138 383.754,244.471 385.5,244C 380.449,243.331 378.949,240.831 381,236.5C 382.965,234.45 385.132,232.783 387.5,231.5 Z"/></g>
<g><path style="opacity:0.662" fill="#060606" d="M 420.5,232.5 C 422.344,233.204 422.844,234.537 422,236.5C 420.623,238.754 419.123,240.92 417.5,243C 418.967,244.098 419.801,245.598 420,247.5C 422.654,243.256 426.487,241.256 431.5,241.5C 431.622,244.77 431.122,247.77 430,250.5C 430.925,249.953 431.758,249.287 432.5,248.5C 433.112,241.881 436.445,239.881 442.5,242.5C 442.185,244.226 442.019,245.893 442,247.5C 445.213,243.476 449.38,241.476 454.5,241.5C 454.78,244.272 454.113,246.772 452.5,249C 453.167,249.667 453.833,249.667 454.5,249C 457.189,243.29 460.856,238.29 465.5,234C 466.448,233.517 467.448,233.351 468.5,233.5C 467.53,236.661 465.863,239.494 463.5,242C 466.179,241.275 468.012,242.441 469,245.5C 477.67,238.864 480.67,240.531 478,250.5C 479.743,248.025 480.743,248.025 481,250.5C 479.499,252.584 477.499,253.917 475,254.5C 472.338,253.677 469.671,252.677 467,251.5C 464.333,255.5 461.667,255.5 459,251.5C 457.667,254.167 456.333,254.167 455,251.5C 453.491,253.919 451.325,254.919 448.5,254.5C 448.649,253.448 448.483,252.448 448,251.5C 446.084,254.033 444.084,254.033 442,251.5C 436.773,254.867 434.773,253.534 436,247.5C 433.603,250.942 430.436,253.275 426.5,254.5C 426.649,253.448 426.483,252.448 426,251.5C 423.597,254.081 421.097,254.081 418.5,251.5C 416.5,252.5 414.5,253.5 412.5,254.5C 411.558,254.392 410.725,254.059 410,253.5C 409.691,252.234 409.191,251.067 408.5,250C 410.163,242.49 414.163,236.657 420.5,232.5 Z M 473.5,247.5 C 472.878,248.627 472.045,249.627 471,250.5C 470.481,248.511 471.314,247.511 473.5,247.5 Z M 448.5,247.5 C 447.878,248.627 447.045,249.627 446,250.5C 445.481,248.511 446.314,247.511 448.5,247.5 Z M 414.5,246.5 C 414.688,248.103 414.188,249.437 413,250.5C 412.227,248.648 412.727,247.314 414.5,246.5 Z M 424.5,248.5 C 424.217,249.289 423.717,249.956 423,250.5C 422.472,249.184 422.972,248.517 424.5,248.5 Z M 464.5,248.5 C 465.773,249.077 465.773,249.743 464.5,250.5C 463.537,250.03 463.537,249.363 464.5,248.5 Z"/></g>
<g><path style="opacity:0.444" fill="#050505" d="M 626.5,234.5 C 627.586,234.62 628.253,235.287 628.5,236.5C 626.685,240.13 624.851,243.797 623,247.5C 622.333,248.5 622.333,249.5 623,250.5C 625.447,246.216 628.947,243.216 633.5,241.5C 635,241.453 636,242.119 636.5,243.5C 634.644,246.19 632.311,248.356 629.5,250C 631.669,250.429 633.669,249.929 635.5,248.5C 635.817,251.087 634.483,252.92 631.5,254C 628.783,255.033 626.949,254.2 626,251.5C 624.266,253.451 622.099,254.451 619.5,254.5C 619.97,250.03 618.97,249.53 616.5,253C 615.216,253.684 614.049,253.517 613,252.5C 612.333,250.5 612.333,248.5 613,246.5C 615.333,244.833 617.667,243.167 620,241.5C 620.333,241.833 620.667,242.167 621,242.5C 623.054,239.953 624.887,237.286 626.5,234.5 Z"/></g>
<g><path style="opacity:0.667" fill="#050504" d="M 698.5,237.5 C 699.586,237.62 700.253,238.287 700.5,239.5C 699.512,243.282 697.512,246.449 694.5,249C 695,249.5 695.5,250 696,250.5C 699.257,246.053 703.424,243.053 708.5,241.5C 708.744,245.427 706.91,247.76 703,248.5C 702.409,249.483 702.743,250.15 704,250.5C 707.763,249.071 710.596,246.571 712.5,243C 714.345,241.872 716.345,241.372 718.5,241.5C 718.323,245.526 716.323,248.359 712.5,250C 714.788,250.418 716.788,249.751 718.5,248C 720.311,245.022 722.644,242.522 725.5,240.5C 727.65,242.922 727.983,245.589 726.5,248.5C 727.397,248.669 728.397,249.002 729.5,249.5C 726.004,254.631 722.004,255.298 717.5,251.5C 714.226,255.334 711.059,255.334 708,251.5C 704.731,255.274 701.731,255.274 699,251.5C 697.758,252.872 696.258,253.872 694.5,254.5C 693.071,253.065 691.405,252.065 689.5,251.5C 687.553,252.277 685.72,253.277 684,254.5C 682.347,254.18 681.347,253.18 681,251.5C 679.211,253.229 677.044,253.896 674.5,253.5C 674.698,251.425 674.865,249.425 675,247.5C 672.833,249.667 670.667,251.833 668.5,254C 664.558,255.418 662.225,254.084 661.5,250C 663,245.833 665.833,243 670,241.5C 671.261,241.759 672.261,242.426 673,243.5C 675.185,241.585 677.685,241.418 680.5,243C 680.957,243.414 681.291,243.914 681.5,244.5C 680.167,245.62 679.667,246.953 680,248.5C 681.62,246.759 683.12,244.925 684.5,243C 685.448,242.517 686.448,242.351 687.5,242.5C 687.351,243.552 687.517,244.552 688,245.5C 690.112,241.873 691.779,241.873 693,245.5C 694.214,243.951 695.714,242.785 697.5,242C 697.167,241.667 696.833,241.333 696.5,241C 697.305,239.887 697.972,238.721 698.5,237.5 Z M 722.5,246.5 C 723.713,247.497 723.546,248.497 722,249.5C 721.53,248.423 721.697,247.423 722.5,246.5 Z M 670.5,246.5 C 671.239,246.369 671.906,246.536 672.5,247C 670.93,249.927 668.596,250.927 665.5,250C 667.584,249.303 669.251,248.136 670.5,246.5 Z"/></g>
<g><path style="opacity:1" fill="#274493" d="M 267.5,236.5 C 268.552,236.351 269.552,236.517 270.5,237C 267.299,239.702 264.632,242.869 262.5,246.5C 260.556,247.189 258.556,247.689 256.5,248C 255.122,249.713 253.455,251.047 251.5,252C 252.772,253.046 254.272,253.546 256,253.5C 259.19,252.262 262.357,252.262 265.5,253.5C 265.5,254.5 265.5,255.5 265.5,256.5C 263.369,257.314 261.036,257.814 258.5,258C 258.957,258.414 259.291,258.914 259.5,259.5C 257.376,260.149 255.376,260.983 253.5,262C 251.765,262.651 250.098,262.485 248.5,261.5C 247.326,263.234 245.66,264.234 243.5,264.5C 237.855,263.371 232.188,262.371 226.5,261.5C 225.167,261.833 223.833,262.167 222.5,262.5C 228.234,262.74 233.901,263.907 239.5,266C 228.85,266.911 218.184,267.411 207.5,267.5C 207.5,266.5 207.5,265.5 207.5,264.5C 202.272,266.288 197.272,265.788 192.5,263C 191.167,261.667 191.167,260.333 192.5,259C 190.986,257.561 190.653,256.061 191.5,254.5C 189.518,253.784 187.851,252.617 186.5,251C 190.147,250.226 193.814,249.559 197.5,249C 211.167,248.667 224.833,248.333 238.5,248C 240.272,246.513 242.272,246.18 244.5,247C 240.894,250.328 236.561,251.995 231.5,252C 230.5,252.833 229.5,253.667 228.5,254.5C 230.421,255.641 232.421,255.808 234.5,255C 240.825,251.556 247.492,248.89 254.5,247C 256.351,245.316 258.018,243.483 259.5,241.5C 262.716,240.6 265.382,238.933 267.5,236.5 Z"/></g>
<g><path style="opacity:1" fill="#4691c5" d="M 319.5,226.5 C 319.649,227.552 319.483,228.552 319,229.5C 314.086,234.483 309.086,239.483 304,244.5C 303.764,246.764 303.264,248.931 302.5,251C 305.028,252.316 305.028,253.483 302.5,254.5C 304.796,256.552 307.463,257.552 310.5,257.5C 280.343,278.035 247.01,285.702 210.5,280.5C 210.38,279.414 209.713,278.747 208.5,278.5C 204.819,277.73 201.152,276.897 197.5,276C 196.829,275.014 196.829,273.847 197.5,272.5C 247.075,280.205 287.742,264.871 319.5,226.5 Z"/></g>
<g><path style="opacity:0.875" fill="#3371ab" d="M 197.5,272.5 C 196.829,273.847 196.829,275.014 197.5,276C 201.152,276.897 204.819,277.73 208.5,278.5C 209.713,278.747 210.38,279.414 210.5,280.5C 193.242,277.304 177.242,270.97 162.5,261.5C 162.833,261.167 163.167,260.833 163.5,260.5C 174.243,266.207 185.577,270.207 197.5,272.5 Z"/></g>
</svg>
